# xmcd
# 
# Track frame offsets:
#     150
#     13145
#     26671
#     40238
#     53930
#     67203
#     82186
#     96574
#     110136
#     123321
#     137368
#     149472
#     160810
#     175867
#     189786
#     202178
#     217907
#     231130
#     244886
#     258131
#     272738
#     286354
#     300251
#     316395
#     328870
# 
# Disc length: 4570
# 
# Revision: 2
# Processed by: cddbd v1.5.2PL0 Copyright (c) Steve Scherf et al.
# Submitted via: fre:ac v1.0.17
# 
DISCID=7711d819
DTITLE=Thelonious MONK - Les Triomphes du Jazz 2-14
DYEAR=2003
DGENRE=Jazz
TTITLE0=Humph
TTITLE1=Suburban eyes
TTITLE2=Thelonious
TTITLE3=Nice work if you can get it
TTITLE4=Well, you needn't
TTITLE5=April in Paris
TTITLE6=Introspection
TTITLE7=Off Minor
TTITLE8=In walked Bud
TTITLE9=Monk's mood
TTITLE10=Who knows
TTITLE11=Evidence
TTITLE12=Misterioso
TTITLE13=Epistrophy
TTITLE14=I mean you
TTITLE15=Four in one
TTITLE16=Criss Cross
TTITLE17=Eronel
TTITLE18=Straight, no chaser
TTITLE19=Ask me now
TTITLE20=Willow weep for me
TTITLE21=Little rootie tootie
TTITLE22=Sweet and lovely
TTITLE23=Bye-Ya
TTITLE24=Monk's dream
EXTD=
EXTT0=
EXTT1=
EXTT2=
EXTT3=
EXTT4=
EXTT5=
EXTT6=
EXTT7=
EXTT8=
EXTT9=
EXTT10=
EXTT11=
EXTT12=
EXTT13=
EXTT14=
EXTT15=
EXTT16=
EXTT17=
EXTT18=
EXTT19=
EXTT20=
EXTT21=
EXTT22=
EXTT23=
EXTT24=
PLAYORDER=
